<?xml version="1.0" encoding="utf-8"?>
<!-- Generator: Adobe Illustrator 18.1.1, SVG Export Plug-In . SVG Version: 6.00 Build 0)  -->
<svg version="1.1" id="Layer_1" xmlns="http://www.w3.org/2000/svg" xmlns:xlink="http://www.w3.org/1999/xlink" x="0px" y="0px"
	 viewBox="0 0 101.6 101" enable-background="new 0 0 101.6 101" xml:space="preserve">
<polyline fill="none" points="494,101 0,101 0,0 494,0 "/>
<polygon fill="#FFFFFF" points="45.3,68.1 56.9,68.1 51.1,46.6 "/>
<path fill="#FFFFFF" d="M51.1,14.1c-20.1,0-36.4,16.3-36.4,36.4c0,20.1,16.3,36.4,36.4,36.4s36.4-16.3,36.4-36.4
	C87.5,30.4,71.2,14.1,51.1,14.1 M38.9,73.2l12.3-45.4l12.2,45.4H38.9z"/>
<path fill="#FFFFFF" d="M51.1,0c27.9,0,50.5,22.6,50.5,50.5c0,27.9-22.6,50.5-50.5,50.5S0.6,78.4,0.6,50.5C0.6,22.6,23.2,0,51.1,0
	 M5.4,50.5c0,25.2,20.5,45.7,45.7,45.7c25.2,0,45.7-20.5,45.7-45.7S76.3,4.8,51.1,4.8C25.9,4.8,5.4,25.3,5.4,50.5"/>
<polyline fill="none" points="494,101 0,101 0,0 494,0 "/>
<polyline fill="none" points="494,0 0,0 0,101 494,101 "/>
</svg>
