<?xml version="1.0" encoding="utf-8"?>
<!-- Generator: Adobe Illustrator 18.1.1, SVG Export Plug-In . SVG Version: 6.00 Build 0)  -->
<svg version="1.1" id="Layer_1" xmlns="http://www.w3.org/2000/svg" xmlns:xlink="http://www.w3.org/1999/xlink" x="0px" y="0px"
	 viewBox="0 0 494 101" enable-background="new 0 0 494 101" xml:space="preserve">
<g>
	<defs>
		<rect id="SVGID_1_" width="494" height="101"/>
	</defs>
	<clipPath id="SVGID_2_">
		<use xlink:href="#SVGID_1_"  overflow="visible"/>
	</clipPath>
	<g display="none" clip-path="url(#SVGID_2_)">
		<defs>
			<rect id="SVGID_3_" width="494" height="101"/>
		</defs>
		<clipPath id="SVGID_4_" display="inline">
			<use xlink:href="#SVGID_3_"  overflow="visible"/>
		</clipPath>
	</g>
	<g clip-path="url(#SVGID_2_)">
		<defs>
			<rect id="SVGID_5_" width="494" height="101"/>
		</defs>
		<clipPath id="SVGID_6_">
			<use xlink:href="#SVGID_5_"  display="none" overflow="visible"/>
		</clipPath>
		<g display="none" opacity="0" clip-path="url(#SVGID_6_)">
			<g display="inline">
				<defs>
					<rect id="SVGID_7_" x="1.6" y="0.5" width="99" height="99"/>
				</defs>
				<clipPath id="SVGID_8_">
					<use xlink:href="#SVGID_7_"  overflow="visible"/>
				</clipPath>
				<path clip-path="url(#SVGID_8_)" fill="#FFFFFF" d="M51.1,0.5C23.7,0.5,1.6,22.6,1.6,50s22.2,49.5,49.5,49.5
					c27.3,0,49.5-22.2,49.5-49.5C100.6,22.6,78.4,0.5,51.1,0.5 M51.1,5.4c24.6,0,44.6,20,44.6,44.6c0,24.6-20,44.6-44.6,44.6
					c-24.6,0-44.6-20-44.6-44.6C6.5,25.4,26.5,5.4,51.1,5.4"/>
			</g>
		</g>
		<g display="none" opacity="0" clip-path="url(#SVGID_6_)">
			<g display="inline">
				<defs>
					<rect id="SVGID_9_" x="38.8" y="26.1" width="24.5" height="45.4"/>
				</defs>
				<clipPath id="SVGID_10_">
					<use xlink:href="#SVGID_9_"  overflow="visible"/>
				</clipPath>
				<path clip-path="url(#SVGID_10_)" fill="#FFFFFF" d="M45.3,66.4h11.6l-5.8-21.5L45.3,66.4z M38.8,71.5l12.3-45.4l12.2,45.4H38.8
					z"/>
			</g>
		</g>
	</g>
	<path clip-path="url(#SVGID_2_)" fill="#FFFFFF" d="M134.5,40.2l-5,12.9h10.2L134.5,40.2z M131,28.1l7.6,1l18.1,41.6l-10.4-1
		l-3.6-8.8h-16.1l-3.5,8.8H113L131,28.1z"/>
	<g clip-path="url(#SVGID_2_)">
		<defs>
			<rect id="SVGID_11_" width="494" height="101"/>
		</defs>
		<clipPath id="SVGID_12_">
			<use xlink:href="#SVGID_11_"  overflow="visible"/>
		</clipPath>
		<path clip-path="url(#SVGID_12_)" fill="#FFFFFF" d="M183.9,38.9c-0.9-1.1-2-1.9-3.3-2.5c-1.3-0.6-2.8-0.9-4.5-0.9
			c-1.7,0-3.3,0.3-4.8,1c-1.5,0.7-2.7,1.6-3.8,2.8c-1.1,1.2-1.9,2.6-2.5,4.3c-0.7,1.6-1,4.4-1,6.3c0,2,0.3,2.7,0.9,4.4
			c0.6,1.6,1.4,3,2.5,4.2c1.1,1.2,2.3,2.1,3.7,2.8c1.4,0.7,3,1,4.6,1c1.9,0,3.5-0.4,5-1.2c1.4-0.8,2.6-1.9,3.6-3.3l7.6,5.7
			c-1.8,2.5-4,4.3-6.7,5.5c-2.7,1.2-5.5,1.8-8.3,1.8c-3.2,0-6.2-0.5-9-1.5c-2.7-1-5.1-2.5-7.1-4.4c-2-1.9-3.5-4.2-4.7-6.9
			c-1.1-2.7-1.7-5.7-1.7-9c0-3.3,0.6-6.3,1.7-9c1.1-2.7,2.7-5,4.7-6.9c2-1.9,4.4-3.4,7.1-4.4s5.7-1.5,9-1.5c1.2,0,2.4,0.1,3.7,0.3
			c1.3,0.2,2.5,0.6,3.8,1c1.2,0.5,2.4,1.1,3.6,1.9c1.1,0.8,2.1,1.7,3,2.9L183.9,38.9"/>
		<path clip-path="url(#SVGID_12_)" fill="#FFFFFF" d="M212.6,40.2l-5,12.9h10.1L212.6,40.2z M209.1,28.1l7.6,1l18.1,41.6l-10.3-1
			l-3.6-8.8h-16.2l-3.5,8.8h-10.1L209.1,28.1z"/>
		<path clip-path="url(#SVGID_12_)" fill="#FFFFFF" d="M246.6,62.2h4.7c2.1,0,4.1-0.2,5.9-0.6c1.8-0.4,3.4-1.1,4.7-2.1
			s2.4-2.3,3.1-3.9c0.8-1.6,1.1-3.6,1.1-6c0-2-0.4-3.8-1.1-5.3c-0.8-1.5-1.8-2.7-3.1-3.7s-2.8-1.7-4.5-2.2s-3.6-0.7-5.5-0.7h-5.4
			v24.5H246.6z M237.5,29.1h13.7c3.3,0,6.5,0.4,9.5,1.1c3,0.7,5.6,1.9,7.8,3.6c2.2,1.7,4,3.8,5.3,6.5c1.3,2.7,2,5.9,2,9.7
			c0,3.4-0.6,6.3-1.9,8.9c-1.3,2.6-3,4.7-5.1,6.5c-2.2,1.7-4.6,3.1-7.5,4c-2.8,0.9-5.8,1.3-8.9,1.3h-15V29.1H237.5z"/>
		<polygon clip-path="url(#SVGID_12_)" fill="#FFFFFF" points="280.7,29.1 289.8,28.1 289.8,69.7 280.7,70.7 		"/>
		<path clip-path="url(#SVGID_12_)" fill="#FFFFFF" d="M314,40.2l-5.1,12.9h10.2L314,40.2z M310.4,28.1l7.6,1l18.1,41.6l-10.3-1
			l-3.6-8.8H306l-3.5,8.8h-10.1L310.4,28.1z"/>
		<path clip-path="url(#SVGID_12_)" fill="#FFFFFF" d="M348.1,62c1,1.8,2.3,3.1,4,3.9c1.6,0.9,3.5,1.3,5.6,1.3
			c1.3,0,2.5-0.2,3.6-0.6c1.1-0.4,2.1-0.9,3-1.6c0.8-0.7,1.5-1.6,2-2.6s0.7-2.1,0.7-3.4c0-1.4-0.3-2.6-0.9-3.6
			c-0.6-0.9-1.4-1.7-2.4-2.3c-1-0.6-2.2-1.1-3.4-1.6c-1.3-0.4-2.6-0.9-3.9-1.3c-1.4-0.4-2.7-0.9-3.9-1.5c-1.3-0.5-2.4-1.3-3.4-2.1
			c-1-0.9-1.8-2-2.4-3.3c-0.6-1.3-0.9-3-0.9-4.9c0-1.8,0.4-3.5,1.1-4.9c0.7-1.4,1.7-2.6,2.9-3.6c1.2-1,2.7-1.7,4.3-2.2
			c1.6-0.5,3.3-0.7,5-0.7c2.3,0,4.4,0.4,6.3,1.2c1.9,0.8,3.6,2.1,5,4l-3.3,2.4c-1-1.4-2.1-2.4-3.4-3.1c-1.3-0.7-2.9-1-4.7-1
			c-1.2,0-2.4,0.2-3.6,0.5c-1.1,0.3-2.1,0.8-3,1.5c-0.9,0.6-1.5,1.5-2,2.4c-0.5,1-0.8,2.1-0.8,3.5c0,2.1,0.5,3.7,1.6,4.8
			c1.1,1.1,2.4,2,4,2.6c1.6,0.6,3.3,1.2,5.2,1.7c1.9,0.5,3.6,2.1,5.2,3c1.6,0.8,2.9,1,4,2.4c1.1,1.5,1.6,3.5,1.6,6.1
			c0,1.9-0.3,3.5-1.1,5c-0.7,1.4-1.7,2.7-2.9,3.7s-2.6,1.8-4.1,2.3c-1.6,0.5-3.2,0.8-4.9,0.8c-2.7,0-5.3-0.5-7.6-1.4
			c-2.3-1-4.3-2.6-5.9-4.8L348.1,62"/>
		<path clip-path="url(#SVGID_12_)" fill="#FFFFFF" d="M379.4,48.9c0,2.6,0.4,5,1.2,7.2s2,4.2,3.5,5.8c1.5,1.6,3.4,2.9,5.6,3.9
			c2.2,0.9,4.6,1.4,7.3,1.4c2.7,0,5.1-0.5,7.3-1.4c2.2-0.9,4-2.2,5.5-3.9c1.5-1.6,2.7-3.6,3.5-5.8c0.8-2.2,1.2-3.6,1.2-6.2
			c0-2.6-0.4-6-1.2-8.2c-0.8-2.2-2-4.2-3.5-5.8c-1.5-1.6-3.4-2.9-5.5-3.9c-2.2-0.9-4.6-1.4-7.3-1.4c-2.7,0-5.1,0.5-7.3,1.4
			c-2.2,0.9-4,2.2-5.6,3.9c-1.5,1.6-2.7,3.6-3.5,5.8C379.8,43.9,379.4,46.3,379.4,48.9 M375.5,48.9c0-3.2,0.5-6.1,1.6-8.7
			c1.1-2.7,2.5-5,4.4-6.9c1.9-1.9,4.1-3.5,6.8-4.5c2.6-1.1,5.5-1.6,8.7-1.6c3.2,0,6.1,0.5,8.7,1.6c2.6,1.1,4.9,2.6,6.8,4.5
			c1.9,1.9,3.3,4.2,4.4,6.9c1.1,2.7,1.6,5.6,1.6,8.7c0,3.2-0.5,6.1-1.6,8.8c-1.1,2.7-2.5,5-4.4,6.9c-1.9,1.9-4.1,3.4-6.8,4.5
			c-2.6,1.1-5.5,1.6-8.7,1.6c-3.2,0-6.1-0.5-8.7-1.6c-2.6-1.1-4.9-2.6-6.8-4.5c-1.9-1.9-3.3-4.2-4.4-6.9
			C376,55,375.5,52.1,375.5,48.9"/>
		<polygon clip-path="url(#SVGID_12_)" fill="#FFFFFF" points="425.1,28.1 450,28.1 450,31.6 429,31.6 429,46.4 448.5,46.4 
			448.5,50.9 429,50.9 429,69.6 425.1,69.6 		"/>
		<polyline clip-path="url(#SVGID_12_)" fill="#FFFFFF" points="469.3,31.6 455.1,31.6 455.1,28.1 487.4,28.1 487.4,31.6 
			473.2,32.6 473.2,70.6 469.3,69.6 469.3,31.6 		"/>
	</g>
	<polygon clip-path="url(#SVGID_2_)" fill="#FFFFFF" points="45.3,68.1 56.9,68.1 51.1,46.6 	"/>
	<g clip-path="url(#SVGID_2_)">
		<defs>
			<rect id="SVGID_13_" width="494" height="101"/>
		</defs>
		<clipPath id="SVGID_14_">
			<use xlink:href="#SVGID_13_"  overflow="visible"/>
		</clipPath>
		<path clip-path="url(#SVGID_14_)" fill="#FFFFFF" d="M51.1,14.1c-20.1,0-36.4,16.3-36.4,36.4c0,20.1,16.3,36.4,36.4,36.4
			s36.4-16.3,36.4-36.4C87.5,30.4,71.2,14.1,51.1,14.1 M38.9,73.2l12.3-45.4l12.2,45.4H38.9z"/>
		<path clip-path="url(#SVGID_14_)" fill="#FFFFFF" d="M51.1,0c27.9,0,50.5,22.6,50.5,50.5c0,27.9-22.6,50.5-50.5,50.5
			S0.6,78.4,0.6,50.5C0.6,22.6,23.2,0,51.1,0 M5.4,50.5c0,25.2,20.5,45.7,45.7,45.7c25.2,0,45.7-20.5,45.7-45.7S76.3,4.8,51.1,4.8
			C25.9,4.8,5.4,25.3,5.4,50.5"/>
	</g>
</g>
</svg>
