<svg width="67px" height="67px" viewBox="65 27 67 67" version="1.1" xmlns="http://www.w3.org/2000/svg" xmlns:xlink="http://www.w3.org/1999/xlink">
  <defs></defs>
  <g id="Group-3" stroke="none" stroke-width="1" fill="none" fill-rule="evenodd" transform="translate(65.000000, 27.000000)">
      <path d="M54.431846,38.3452595 C53.200536,36.83027 48.4534885,32.5869587 43.2039382,28.5028554 C43.3714391,28.0235556 43.4712269,27.462138 43.4712269,26.8571477 C43.4712269,25.1343499 42.6889619,24.8678861 41.7213768,24.8678861 C40.9212926,24.8678861 40.2423792,25.053908 40.0374579,26.1030047 C38.5851892,25.0354734 37.1382664,24.0182183 35.7626205,23.1149226 L35.7626205,23.1031914 C35.6521411,15.9723503 35.2102238,10.9849513 33.2786174,11.0000341 C31.3291917,11.0084135 30.942514,15.9924608 30.9211309,23.1233019 L30.9211309,23.1702264 C29.5686501,24.0584392 28.1520199,25.053908 26.728262,26.1030047 C26.5197768,25.053908 25.8479912,24.8678861 25.0443431,24.8678861 C24.076758,24.8678861 23.2927111,25.1343499 23.2927111,26.8571477 C23.2927111,27.462138 23.390717,28.0235556 23.5617818,28.5028554 C18.3122315,32.5869587 13.5687478,36.83027 12.3374378,38.3452595 C11.8848289,38.8982977 12.000654,39.8468421 12.0523299,40.6395302 L24.905353,33.8824088 L30.9603333,32.1478799 L30.967461,32.1629628 L31.5216396,45.7861372 L27.0668277,49.8635371 C26.9581303,50.2238498 26.9367472,50.6746598 27.0311892,51.2209945 C29.001998,50.8221366 30.7037361,50.2808295 32.6389064,49.8652129 C33.1734838,51.544438 33.8149767,51.5343828 34.3335168,49.8568336 C36.2758148,50.2540156 37.9846806,50.7835915 39.9572713,51.1573113 C40.0410218,50.6193559 40.0196387,50.168546 39.8984678,49.8032056 L35.4008897,45.7693785 L35.7982589,32.1478799 L41.8639308,33.8824088 L54.7133901,40.6395302 C54.7650659,39.8468421 54.880891,38.8982977 54.431846,38.3452595" id="Fill-1" fill="#FFFFFF"></path>
      <path d="M33.5,62.8125 C17.33625,62.8125 4.1875,49.6609583 4.1875,33.4972083 C4.1875,17.3306667 17.33625,4.1875 33.5,4.1875 C49.66375,4.1875 62.8125,17.3306667 62.8125,33.4972083 C62.8125,49.6609583 49.66375,62.8125 33.5,62.8125 M33.5,67 C52.000375,67 67,51.9975833 67,33.4972083 C67,14.9940417 52.000375,0 33.5,0 C14.999625,0 0,14.9940417 0,33.4972083 C0,51.9975833 14.999625,67 33.5,67" id="Fill-2" fill="#FFFFFF"></path>
  </g>
</svg>
