<svg width="67px" height="67px" viewBox="65 27 67 67" version="1.1" xmlns="http://www.w3.org/2000/svg" xmlns:xlink="http://www.w3.org/1999/xlink">
    <defs></defs>
    <g id="CHECKin-icon" stroke="none" stroke-width="1" fill="none" fill-rule="evenodd" transform="translate(65.000000, 27.000000)">
        <polygon id="Fill-1" fill="#FFFFFF" points="46.9538812 19 30.1285656 40.533016 19.3606915 32.1203582 16 36.4291472 31.0739309 48.1997642 51.2599379 22.366156"></polygon>
        <g id="Group-4" fill="#FFFFFF">
            <path d="M33.5,62.8125 C17.33625,62.8125 4.1875,49.6609583 4.1875,33.4972083 C4.1875,17.3306667 17.33625,4.1875 33.5,4.1875 C49.66375,4.1875 62.8125,17.3306667 62.8125,33.4972083 C62.8125,49.6609583 49.66375,62.8125 33.5,62.8125 M33.5,67 C52.000375,67 67,51.9975833 67,33.4972083 C67,14.9940417 52.000375,0 33.5,0 C14.999625,0 0,14.9940417 0,33.4972083 C0,51.9975833 14.999625,67 33.5,67" id="Fill-2"></path>
        </g>
    </g>
</svg>
