<svg width="68px" height="68px" viewBox="0 583 68 68" version="1.1" xmlns="http://www.w3.org/2000/svg" xmlns:xlink="http://www.w3.org/1999/xlink">
    <defs></defs>
    <g id="CHECKin-icon" stroke="none" stroke-width="1" fill="none" fill-rule="evenodd" transform="translate(0.000000, 583.000000)">
        <polygon id="Fill-1" fill="#FFFFFF" points="31.6672216 37.6623009 31.6672224 17.4228347 27.5689213 17.4228347 27.5689213 41.7557457 46.3832791 41.7557457 46.3832783 37.6623009"></polygon>
        <g id="Group-4" fill="#FFFFFF">
            <path d="M33.5013661,62.859375 C17.3376161,62.859375 4.18886613,49.7078333 4.18886613,33.5440833 C4.18886613,17.3775417 17.3376161,4.234375 33.5013661,4.234375 C49.6651161,4.234375 62.8138661,17.3775417 62.8138661,33.5440833 C62.8138661,49.7078333 49.6651161,62.859375 33.5013661,62.859375 M33.5013661,67.046875 C52.0017411,67.046875 67.0013661,52.0444583 67.0013661,33.5440833 C67.0013661,15.0409167 52.0017411,0.046875 33.5013661,0.046875 C15.0009911,0.046875 0.00136613475,15.0409167 0.00136613475,33.5440833 C0.00136613475,52.0444583 15.0009911,67.046875 33.5013661,67.046875" id="Fill-2"></path>
        </g>
    </g>
</svg>
