<svg width="48px" height="48px" viewBox="35 20 48 48" version="1.1" xmlns="http://www.w3.org/2000/svg" xmlns:xlink="http://www.w3.org/1999/xlink">
    <defs></defs>
    <g id="Group-5" stroke="none" stroke-width="1" fill="none" fill-rule="evenodd" transform="translate(35.421840, 20.458839)">
        <path d="M23.5,44.0625 C12.16125,44.0625 2.9375,34.8367917 2.9375,23.4980417 C2.9375,12.1573333 12.16125,2.9375 23.5,2.9375 C34.83875,2.9375 44.0625,12.1573333 44.0625,23.4980417 C44.0625,34.8367917 34.83875,44.0625 23.5,44.0625 M23.5,47 C36.477875,47 47,36.4759167 47,23.4980417 C47,10.5182083 36.477875,0 23.5,0 C10.522125,0 0,10.5182083 0,23.4980417 C0,36.4759167 10.522125,47 23.5,47" id="Fill-2" fill="#002244"></path>
        <path d="M27.047,22.6869835 C26.83525,22.4596439 26.73075,22.1568241 26.7289167,21.8486128 C26.7270833,21.5799388 26.8150833,21.3220477 26.9645,21.0965053 C27.7335833,19.9328504 28.3083333,18.3729239 28.4155833,16.612615 C28.6374167,12.9706897 27.6419167,10.0071886 24.0055,10 C20.3580833,10.0071886 19.3616667,12.9706897 19.5844167,16.612615 C19.69075,18.3657353 20.2618333,19.921169 21.0263333,21.0830267 C21.17575,21.3103662 21.2655833,21.5700545 21.2655833,21.8414242 C21.2655833,22.1568241 21.1601667,22.4668325 20.942,22.6977664 C20.7009167,22.9529617 20.337,23.2009685 19.8126667,23.4462795 C17.0984167,24.7141692 13,24.5443384 13,31.4409032 C13,31.4409032 16.0802916,36.0296302 24.0055002,36.0296302 C31.9307088,36.0296302 35,31.4409032 35,31.4409032 C35,24.5443384 30.9006667,24.7141692 28.1873333,23.4462795 C27.65475,23.1973742 27.2880833,22.9457731 27.047,22.6869835 Z" id="Fill-4" fill="#003057" transform="translate(24.000000, 23.014815) rotate(1.000000) translate(-24.000000, -23.014815) "></path>
    </g>
</svg>
