<svg width="67px" height="67px" viewBox="65 27 67 67" version="1.1" xmlns="http://www.w3.org/2000/svg" xmlns:xlink="http://www.w3.org/1999/xlink">
    <defs></defs>
    <g id="Group" stroke="none" stroke-width="1" fill="none" fill-rule="evenodd" transform="translate(65.000000, 27.000000)">
        <path d="M33.5,62.8125 C17.33625,62.8125 4.1875,49.6609583 4.1875,33.4972083 C4.1875,17.3306667 17.33625,4.1875 33.5,4.1875 C49.66375,4.1875 62.8125,17.3306667 62.8125,33.4972083 C62.8125,49.6609583 49.66375,62.8125 33.5,62.8125 M33.5,67 C52.000375,67 67,51.9975833 67,33.4972083 C67,14.9940417 52.000375,0 33.5,0 C14.999625,0 0,14.9940417 0,33.4972083 C0,51.9975833 14.999625,67 33.5,67" id="Fill-2" fill="#FFFFFF"></path>
        <g id="Suitcase-3" transform="translate(15.990359, 17.680556)" fill="#FFFFFF">
            <path d="M32.213087,5.46995748 C34.0801756,5.46995748 35.59375,6.92412328 35.59375,8.7121094 L35.59375,26.6430196 C35.59375,28.4336107 34.064331,29.8851715 32.213087,29.8851715 L3.38066293,29.8851715 C1.51357435,29.8851715 0,28.4310057 0,26.6430196 L0,8.7121094 C0,7.49547528 0.706079543,6.43535961 1.73943716,5.88074416 C2.22693193,5.61909985 2.78726428,5.46995748 3.38066293,5.46995748 L32.213087,5.46995748 Z M3.43955345,25.6716301 C3.43955345,26.4648928 4.1130737,27.1111763 4.9426312,27.1111763 L30.6511187,27.1111763 C31.4735412,27.1111763 32.1541965,26.460515 32.1541965,25.6716301 L32.1541965,9.68349885 C32.1541965,8.89023617 31.4806763,8.24395263 30.6511187,8.24395263 L4.9426312,8.24395263 C4.1202088,8.24395263 3.43955345,8.894614 3.43955345,9.68349885 L3.43955345,25.6716301 Z" id="rect"></path>
            <path d="M24.1400083,0.315775905 C24.9615273,0.315775905 25.6275,0.982405244 25.6275,1.80206694 L25.6275,8.08275209 L9.96625,8.08275209 L9.96625,1.80206694 C9.96625,1.24432861 10.276925,0.75834262 10.7316023,0.504091741 C10.9461,0.384146843 11.1926463,0.315775905 11.4537417,0.315775905 L24.1400083,0.315775905 Z M22.952117,7.76847718 L22.952117,3.43785963 C22.952117,3.13762256 22.710278,2.89301471 22.4124112,2.89301471 L13.1813388,2.89301471 C12.886034,2.89301471 12.641633,3.1392795 12.641633,3.43785963 L12.641633,7.76847718 L22.952117,7.76847718 Z" id="Combined-Shape"></path>
        </g>
    </g>
</svg>
